<svg xmlns="http://www.w3.org/2000/svg" viewBox="0 0 128 128">
  <defs>
    <linearGradient id="gold" x1="0" y1="0" x2="1" y2="1">
      <stop offset="0" stop-color="#FFE87C"/>
      <stop offset=".45" stop-color="#FFD700"/>
      <stop offset=".75" stop-color="#c9a227"/>
      <stop offset="1" stop-color="#8a6d1a"/>
    </linearGradient>
    <radialGradient id="felt" cx=".5" cy=".38" r=".85">
      <stop offset="0" stop-color="#20202c"/>
      <stop offset="1" stop-color="#0a0a0f"/>
    </radialGradient>
  </defs>
  <!-- 筹码外圈 -->
  <circle cx="64" cy="64" r="62" fill="url(#gold)"/>
  <!-- 轮圈凹槽 -->
  <g fill="#0a0a0f">
    <rect x="58" y="3" width="12" height="16" rx="3" transform="rotate(22.5 64 64)"/>
    <rect x="58" y="3" width="12" height="16" rx="3" transform="rotate(67.5 64 64)"/>
    <rect x="58" y="3" width="12" height="16" rx="3" transform="rotate(112.5 64 64)"/>
    <rect x="58" y="3" width="12" height="16" rx="3" transform="rotate(157.5 64 64)"/>
    <rect x="58" y="3" width="12" height="16" rx="3" transform="rotate(202.5 64 64)"/>
    <rect x="58" y="3" width="12" height="16" rx="3" transform="rotate(247.5 64 64)"/>
    <rect x="58" y="3" width="12" height="16" rx="3" transform="rotate(292.5 64 64)"/>
    <rect x="58" y="3" width="12" height="16" rx="3" transform="rotate(337.5 64 64)"/>
  </g>
  <!-- 内盘 -->
  <circle cx="64" cy="64" r="45" fill="url(#felt)"/>
  <circle cx="64" cy="64" r="45" fill="none" stroke="#c9a227" stroke-width="1.5" opacity=".6"/>
  <!-- 黑桃 -->
  <path fill="url(#gold)" d="M64 30 C51 47 36 56 36 71 a13.5 13.5 0 0 0 25 6.5 C60 83 58 87 55 91 h18 c-3-4-5-8-6-13.5 A13.5 13.5 0 0 0 92 71 C92 56 77 47 64 30 Z"/>
</svg>
